<svg width="144" height="144" viewBox="0 0 144 144" fill="none" xmlns="http://www.w3.org/2000/svg">
  <rect width="144" height="144" rx="20" fill="#3b82f6"/>
  <path d="M72 36C52.1178 36 36 52.1178 36 72C36 91.8822 52.1178 108 72 108C91.8822 108 108 91.8822 108 72C108 52.1178 91.8822 36 72 36Z" fill="white"/>
  <path d="M72 48C58.7452 48 48 58.7452 48 72C48 85.2548 58.7452 96 72 96C85.2548 96 96 85.2548 96 72C96 58.7452 85.2548 48 72 48Z" fill="#3b82f6"/>
  <path d="M72 60C65.3726 60 60 65.3726 60 72C60 78.6274 65.3726 84 72 84C78.6274 84 84 78.6274 84 72C84 65.3726 78.6274 60 72 60Z" fill="white"/>
  <path d="M72 66C69.7909 66 68 67.7909 68 70C68 72.2091 69.7909 74 72 74C74.2091 74 76 72.2091 76 70C76 67.7909 74.2091 66 72 66Z" fill="#3b82f6"/>
</svg>
